<svg xmlns="http://www.w3.org/2000/svg" xmlns:xlink="http://www.w3.org/1999/xlink" viewBox="0,0,256,256" width="128px" height="128px"><g fill="#ff8c00" fill-rule="nonzero" stroke="none" stroke-width="1" stroke-linecap="butt" stroke-linejoin="miter" stroke-miterlimit="10" stroke-dasharray="" stroke-dashoffset="0" font-family="none" font-weight="none" font-size="none" text-anchor="none" style="mix-blend-mode: normal"><g transform="scale(2,2)"><path d="M64,6c-32,0 -58,26 -58,58c0,32 26,58 58,58c32,0 58,-26 58,-58c0,-32 -26,-58 -58,-58zM64,12c28.7,0 52,23.3 52,52c0,28.7 -23.3,52 -52,52c-28.7,0 -52,-23.3 -52,-52c0,-28.7 23.3,-52 52,-52zM71.70117,36.96094c-1.17656,0.08906 -2.22656,0.83906 -2.60156,2.03906l-16,48c-0.5,1.6 0.4,3.30078 2,3.80078c0.3,0.2 0.60039,0.19922 0.90039,0.19922c1.3,0 2.40078,-0.79961 2.80078,-2.09961l16,-48c0.5,-1.6 -0.30039,-3.30078 -1.90039,-3.80078c-0.4,-0.125 -0.80703,-0.16836 -1.19922,-0.13867zM44.03711,49.9375c-0.7625,-0.0375 -1.53672,0.21172 -2.13672,0.76172l-12.09961,11.10156c-0.6,0.6 -1,1.39922 -1,2.19922c0,0.8 0.4,1.59922 1,2.19922l12.09961,11.10156c0.6,0.5 1.3,0.79883 2,0.79883c0.8,0 1.59922,-0.3 2.19922,-1c1.1,-1.2 1.00078,-3.09922 -0.19922,-4.19922l-9.70117,-8.90039l9.70117,-8.90039c1.2,-1.1 1.29922,-2.99922 0.19922,-4.19922c-0.55,-0.6 -1.3,-0.92539 -2.0625,-0.96289zM84.0625,49.9375c-0.7625,0.0375 -1.5125,0.36289 -2.0625,0.96289c-1.1,1.2 -1.00078,3.09922 0.19922,4.19922l9.70117,8.90039l-9.70117,8.90039c-1.3,1.1 -1.39883,2.99922 -0.29883,4.19922c0.6,0.6 1.39922,1 2.19922,1c0.7,0 1.5,-0.29883 2,-0.79883l12.09961,-11.10156c0.6,-0.6 1,-1.39922 1,-2.19922c0,-0.8 -0.4,-1.59922 -1,-2.19922l-12,-11.10156c-0.6,-0.55 -1.37422,-0.79922 -2.13672,-0.76172z"></path></g></g></svg>